<?xml version="1.0" standalone="no"?>
<!DOCTYPE svg PUBLIC "-//W3C//DTD SVG 20010904//EN"
 "http://www.w3.org/TR/2001/REC-SVG-20010904/DTD/svg10.dtd">
<svg version="1.0" xmlns="http://www.w3.org/2000/svg"
 width="701.000000pt" height="226.000000pt" viewBox="0 0 701.000000 226.000000"
 preserveAspectRatio="xMidYMid meet">

<g transform="translate(0.000000,226.000000) scale(0.100000,-0.100000)"
fill="#000000" stroke="none">
<path d="M4852 2213 c-73 -36 -104 -134 -62 -197 25 -40 87 -76 128 -76 26 0
44 10 85 49 47 45 52 54 52 94 0 74 -74 148 -147 147 -13 0 -38 -8 -56 -17z"/>
<path d="M1379 2197 c-80 -53 -89 -145 -20 -209 53 -50 79 -55 138 -26 63 30
96 80 90 131 -14 104 -125 160 -208 104z"/>
<path d="M5576 1859 c-2 -8 -7 -26 -10 -41 -4 -15 -21 -53 -40 -85 -102 -175
-261 -529 -364 -808 -39 -104 -53 -135 -64 -135 -4 0 -8 -4 -8 -9 0 -6 12 -8
28 -7 15 2 75 4 133 5 l107 1 6 30 c3 17 21 64 40 104 27 58 38 74 53 71 10
-2 82 -4 161 -4 138 -1 143 -2 151 -23 5 -13 17 -42 27 -66 9 -23 20 -58 23
-78 l6 -35 143 -4 c79 -2 142 0 140 3 -2 4 -38 73 -80 152 -42 80 -97 195
-121 255 -25 61 -63 151 -85 200 -38 86 -229 476 -238 484 -2 2 -6 -2 -8 -10z
m72 -606 c25 -47 18 -53 -63 -53 -41 0 -75 4 -75 9 0 5 11 34 25 64 13 31 32
73 40 94 l16 38 23 -65 c12 -36 28 -75 34 -87z"/>
<path d="M3740 1823 c0 -3 9 -20 20 -37 18 -31 19 -54 20 -500 2 -457 1 -468
-19 -489 l-20 -22 147 0 c81 1 148 3 150 5 2 3 -1 18 -7 34 -8 18 -10 122 -9
299 l3 270 56 -74 c31 -41 85 -105 118 -144 34 -38 115 -133 180 -210 65 -77
127 -148 138 -157 12 -11 44 -21 81 -24 l61 -7 3 509 c2 280 7 516 11 524 7
14 -9 16 -125 15 l-133 0 3 -225 c2 -124 2 -254 0 -289 l-3 -65 -109 138 c-60
76 -173 204 -252 285 l-143 148 -55 2 c-30 1 -68 6 -85 11 -17 5 -31 6 -31 3z"/>
<path d="M250 1814 c0 -3 10 -21 23 -42 13 -20 27 -46 31 -57 4 -11 7 -215 6
-454 -1 -363 -3 -437 -15 -455 -8 -11 -15 -24 -15 -27 0 -4 114 -6 253 -5 229
2 258 4 317 24 272 91 417 336 355 601 -36 153 -129 271 -266 338 -104 51
-167 64 -349 69 -91 2 -204 6 -252 8 -49 2 -88 2 -88 0z m454 -239 c228 -22
347 -258 226 -448 -53 -85 -124 -112 -307 -120 l-73 -3 0 294 0 293 48 -5 c26
-3 74 -8 106 -11z"/>
<path d="M1310 1814 c0 -1 7 -18 15 -38 22 -52 22 -943 0 -972 -8 -11 -15 -21
-15 -24 0 -3 66 -7 146 -8 137 -2 146 -1 138 15 -5 10 -9 244 -9 520 l0 502
-138 3 c-75 2 -137 2 -137 2z"/>
<path d="M2165 1814 c-131 -21 -234 -74 -325 -170 -88 -93 -125 -166 -141
-277 -22 -148 16 -282 112 -397 84 -101 195 -169 312 -190 114 -21 203 0 233
56 30 55 47 44 56 -36 3 -25 4 -25 116 -30 63 -3 114 -4 115 -3 1 1 -1 61 -5
135 -7 125 -4 313 8 404 l5 41 -225 -1 c-221 -1 -226 -1 -218 -21 4 -11 6 -62
5 -113 l-3 -93 63 6 c34 3 79 8 100 11 l38 4 -2 -56 c-3 -63 -7 -66 -106 -86
-92 -19 -218 16 -285 79 -34 32 -67 110 -75 173 -7 63 26 174 70 231 17 23 57
56 87 73 50 28 63 31 140 31 85 0 124 -13 203 -68 15 -10 20 -9 28 5 18 32
111 139 130 149 10 5 19 13 19 18 0 10 -140 75 -220 103 -55 19 -179 30 -235
22z"/>
<path d="M2720 1816 c0 -4 10 -21 23 -37 22 -30 22 -35 19 -287 -5 -408 12
-485 128 -607 71 -73 124 -100 235 -117 155 -24 299 25 405 138 100 107 102
119 107 509 1 182 5 345 7 363 l5 32 -140 0 c-133 0 -139 -1 -130 -18 6 -11
11 -153 12 -345 1 -305 0 -329 -18 -364 -58 -111 -258 -111 -331 0 -27 40 -27
40 -39 351 -7 183 -8 324 -3 344 l8 32 -121 0 c-67 0 -132 3 -144 6 -13 4 -23
3 -23 0z"/>
<path d="M6330 1804 c-98 -27 -188 -94 -226 -170 -15 -30 -19 -60 -19 -134 0
-84 3 -101 28 -147 43 -83 112 -125 277 -169 126 -34 164 -57 168 -102 3 -26
-3 -39 -28 -62 -47 -44 -118 -42 -216 5 -41 19 -79 44 -86 55 -17 26 -22 25
-36 -4 -6 -13 -36 -54 -67 -90 -31 -37 -53 -71 -50 -76 11 -17 123 -90 172
-111 61 -27 239 -38 299 -19 79 24 122 50 164 97 95 106 118 230 65 338 -40
83 -91 116 -259 170 -173 55 -206 73 -206 116 0 21 10 40 30 61 29 29 33 30
103 26 77 -4 128 -23 173 -64 14 -14 27 -24 29 -22 1 2 10 18 19 35 9 18 44
62 77 97 33 36 58 69 55 74 -10 17 -177 83 -244 98 -84 17 -152 17 -222 -2z"/>
<path d="M4770 1805 c0 -2 10 -21 23 -42 l22 -38 -3 -450 c-2 -247 -5 -461 -8
-475 l-4 -25 132 3 c73 2 134 5 134 5 1 1 -2 28 -7 60 -5 33 -8 263 -7 512 l3
454 -142 -1 c-79 0 -143 -2 -143 -3z"/>
<path d="M2697 403 c-4 -3 -7 -40 -7 -80 0 -81 -11 -113 -39 -113 -35 0 -52
33 -53 104 -1 66 -12 86 -47 86 -17 0 -14 -154 4 -196 26 -63 109 -78 156 -28
38 40 53 196 22 220 -21 15 -27 17 -36 7z"/>
<path d="M4555 403 c-54 -14 -105 -78 -105 -131 0 -52 75 -122 131 -122 27 0
99 40 99 55 0 6 -11 17 -24 24 -20 11 -28 10 -47 -3 -20 -12 -29 -13 -48 -3
-80 40 -30 136 54 105 36 -12 65 0 65 28 0 28 -80 58 -125 47z"/>
<path d="M1680 275 l0 -125 73 0 c71 0 74 1 110 38 51 52 62 95 39 142 -25 49
-72 70 -154 70 l-68 0 0 -125z m155 39 c9 -9 15 -28 13 -43 -2 -20 -12 -29
-48 -42 -25 -9 -48 -15 -52 -12 -10 5 -10 97 -1 106 13 13 72 7 88 -9z"/>
<path d="M2037 393 c-9 -8 -9 -155 -1 -205 6 -32 11 -38 30 -38 24 0 24 0 24
119 0 99 -3 120 -16 125 -20 8 -29 8 -37 -1z"/>
<path d="M2249 370 c-42 -34 -54 -75 -39 -131 21 -77 99 -109 175 -73 26 12
35 24 45 61 9 37 8 48 -2 54 -19 13 -106 11 -114 -2 -3 -6 7 -24 22 -41 l29
-31 -30 7 c-47 11 -75 34 -75 61 0 40 27 58 82 53 41 -4 51 -2 63 16 21 29 19
33 -16 45 -57 20 -101 14 -140 -19z"/>
<path d="M2876 358 c-3 -24 -8 -78 -11 -120 l-6 -78 41 0 40 0 0 62 0 63 45
-68 c35 -51 51 -67 69 -67 22 0 24 4 30 93 3 50 9 107 12 125 5 24 3 32 -9 32
-25 0 -41 -30 -47 -84 l-5 -51 -53 68 c-39 48 -60 67 -77 67 -20 0 -25 -6 -29
-42z"/>
<path d="M3222 392 c-8 -5 -13 -44 -15 -118 -2 -103 -1 -109 18 -112 17 -2 23
5 30 40 l10 43 53 3 c44 3 52 6 52 23 0 16 -7 19 -51 19 -46 0 -50 2 -47 22 2
19 11 24 52 30 53 7 76 22 60 38 -13 13 -146 23 -162 12z"/>
<path d="M3467 393 c-10 -17 -29 -235 -20 -243 4 -4 18 -4 30 1 24 9 28 26 38
147 3 40 6 78 8 85 2 13 -48 23 -56 10z"/>
<path d="M3625 297 c-9 -135 -8 -141 34 -145 l33 -3 -4 60 c-1 34 -1 61 2 61
2 0 29 -24 60 -54 30 -30 67 -58 83 -61 l27 -7 0 127 0 126 -32 -3 c-33 -3
-33 -3 -38 -68 l-5 -64 -53 67 c-39 48 -60 67 -77 67 -22 0 -23 -4 -30 -103z"/>
<path d="M3950 394 c0 -3 18 -31 39 -63 37 -54 57 -69 119 -86 39 -11 18 -30
-34 -30 -40 0 -49 -3 -52 -19 -6 -28 25 -46 79 -46 40 0 51 4 73 31 46 54 30
94 -47 119 -49 15 -43 34 12 38 48 4 65 27 36 48 -28 20 -79 17 -109 -7 l-27
-21 -23 21 c-20 19 -66 30 -66 15z"/>
<path d="M4834 381 c-63 -38 -81 -99 -49 -161 21 -40 88 -74 129 -66 33 6 84
52 106 95 47 92 -91 190 -186 132z m125 -83 c15 -25 14 -29 -8 -52 -14 -15
-35 -26 -48 -26 -32 0 -75 43 -66 67 12 36 26 44 67 41 32 -2 44 -9 55 -30z"/>
<path d="M5146 363 c-3 -21 -6 -75 -6 -120 l0 -83 35 0 35 0 0 61 0 62 23 -34
c31 -46 52 -48 74 -7 l18 33 3 -57 c3 -57 4 -58 32 -58 l30 0 0 120 0 120 -29
0 c-24 0 -35 -8 -58 -45 -15 -25 -31 -45 -34 -45 -3 0 -20 20 -38 45 -43 59
-76 62 -85 8z"/>
<path d="M1327 359 c-9 -5 -24 -23 -32 -40 -13 -25 -14 -34 -3 -57 26 -54 111
-71 154 -31 40 38 28 96 -26 124 -33 17 -67 19 -93 4z"/>
<path d="M5657 362 c-23 -10 -57 -61 -57 -89 0 -44 94 -88 138 -64 75 40 68
107 -15 150 -24 12 -40 13 -66 3z"/>
<path d="M4302 218 c-29 -29 -2 -72 40 -66 30 4 38 46 12 65 -22 16 -37 16
-52 1z"/>
</g>
</svg>
